<mxfile host="www.draw.io" modified="2020-03-12T03:07:56.335Z" agent="Mozilla/5.0 (Macintosh; Intel Mac OS X 10_14_6) AppleWebKit/537.36 (KHTML, like Gecko) Chrome/80.0.3987.132 Safari/537.36" etag="wYG7CGd-74MmWEuLIxFi" version="12.8.2" type="github" pages="4">
  <diagram id="cweIFnc57AlxQ31BSp3g" name="背景">
    <mxGraphModel dx="878" dy="591" grid="0" gridSize="10" guides="1" tooltips="1" connect="1" arrows="1" fold="1" page="1" pageScale="1" pageWidth="1169" pageHeight="827" math="0" shadow="0">
      <root>
        <mxCell id="6xjObVUxuo3nGW3AaCvO-0" />
        <mxCell id="6xjObVUxuo3nGW3AaCvO-1" parent="6xjObVUxuo3nGW3AaCvO-0" />
        <mxCell id="KzVO82KX9LE0W9TwYb1I-0" style="edgeStyle=orthogonalEdgeStyle;rounded=0;orthogonalLoop=1;jettySize=auto;html=1;exitX=1;exitY=0.25;exitDx=0;exitDy=0;entryX=0;entryY=0.25;entryDx=0;entryDy=0;" edge="1" parent="6xjObVUxuo3nGW3AaCvO-1" source="IgmYXPzAI_QqTg3DWIC8-0" target="kW1Z4qzvWVZWLjWoF0zx-0">
          <mxGeometry relative="1" as="geometry" />
        </mxCell>
        <mxCell id="KzVO82KX9LE0W9TwYb1I-1" value="CreateFileSystem" style="text;html=1;align=center;verticalAlign=middle;resizable=0;points=[];labelBackgroundColor=#ffffff;" vertex="1" connectable="0" parent="KzVO82KX9LE0W9TwYb1I-0">
          <mxGeometry x="-0.1568" relative="1" as="geometry">
            <mxPoint as="offset" />
          </mxGeometry>
        </mxCell>
        <mxCell id="IgmYXPzAI_QqTg3DWIC8-0" value="Client" style="rounded=0;whiteSpace=wrap;html=1;fillColor=#cce5ff;strokeColor=#36393d;" vertex="1" parent="6xjObVUxuo3nGW3AaCvO-1">
          <mxGeometry x="40" y="30" width="120" height="60" as="geometry" />
        </mxCell>
        <mxCell id="KzVO82KX9LE0W9TwYb1I-3" style="edgeStyle=orthogonalEdgeStyle;rounded=0;orthogonalLoop=1;jettySize=auto;html=1;exitX=0.75;exitY=1;exitDx=0;exitDy=0;entryX=0.75;entryY=0;entryDx=0;entryDy=0;" edge="1" parent="6xjObVUxuo3nGW3AaCvO-1" source="kW1Z4qzvWVZWLjWoF0zx-0" target="KzVO82KX9LE0W9TwYb1I-2">
          <mxGeometry relative="1" as="geometry" />
        </mxCell>
        <mxCell id="cO15rp50_BLPMURsvgJx-21" style="edgeStyle=none;rounded=0;orthogonalLoop=1;jettySize=auto;html=1;exitX=0;exitY=0.75;exitDx=0;exitDy=0;entryX=1;entryY=0.75;entryDx=0;entryDy=0;fontColor=#FF0000;" edge="1" parent="6xjObVUxuo3nGW3AaCvO-1" source="kW1Z4qzvWVZWLjWoF0zx-0" target="IgmYXPzAI_QqTg3DWIC8-0">
          <mxGeometry relative="1" as="geometry" />
        </mxCell>
        <mxCell id="cO15rp50_BLPMURsvgJx-22" value="&lt;font color=&quot;#000000&quot;&gt;返回FsId&lt;/font&gt;" style="text;html=1;align=center;verticalAlign=middle;resizable=0;points=[];labelBackgroundColor=#ffffff;fontColor=#FF0000;" vertex="1" connectable="0" parent="cO15rp50_BLPMURsvgJx-21">
          <mxGeometry x="0.2324" y="2" relative="1" as="geometry">
            <mxPoint x="7" y="-3" as="offset" />
          </mxGeometry>
        </mxCell>
        <mxCell id="kW1Z4qzvWVZWLjWoF0zx-0" value="Yaochi" style="rounded=0;whiteSpace=wrap;html=1;fillColor=#ffff88;strokeColor=#36393d;" vertex="1" parent="6xjObVUxuo3nGW3AaCvO-1">
          <mxGeometry x="345" y="30" width="120" height="60" as="geometry" />
        </mxCell>
        <mxCell id="cO15rp50_BLPMURsvgJx-23" style="edgeStyle=none;rounded=0;orthogonalLoop=1;jettySize=auto;html=1;exitX=0.25;exitY=0;exitDx=0;exitDy=0;entryX=0.25;entryY=1;entryDx=0;entryDy=0;fontColor=#FF0000;" edge="1" parent="6xjObVUxuo3nGW3AaCvO-1" source="KzVO82KX9LE0W9TwYb1I-2" target="kW1Z4qzvWVZWLjWoF0zx-0">
          <mxGeometry relative="1" as="geometry" />
        </mxCell>
        <mxCell id="KzVO82KX9LE0W9TwYb1I-2" value="通用型 Ocm" style="rounded=0;whiteSpace=wrap;html=1;fillColor=#f9f7ed;strokeColor=#36393d;" vertex="1" parent="6xjObVUxuo3nGW3AaCvO-1">
          <mxGeometry x="345" y="170" width="120" height="60" as="geometry" />
        </mxCell>
        <mxCell id="YaxWaUyGyfp-0zQnZAlO-2" value="&lt;font style=&quot;font-size: 14px&quot;&gt;同步调用&lt;/font&gt;" style="text;html=1;strokeColor=none;fillColor=none;align=center;verticalAlign=middle;whiteSpace=wrap;rounded=0;fontColor=#FF0000;" vertex="1" parent="6xjObVUxuo3nGW3AaCvO-1">
          <mxGeometry x="240" y="120" width="60" height="30" as="geometry" />
        </mxCell>
        <mxCell id="Gckp_wh8n7c7J1dDtkmI-0" style="edgeStyle=orthogonalEdgeStyle;rounded=0;orthogonalLoop=1;jettySize=auto;html=1;exitX=1;exitY=0.25;exitDx=0;exitDy=0;entryX=0;entryY=0.25;entryDx=0;entryDy=0;" edge="1" parent="6xjObVUxuo3nGW3AaCvO-1" source="Gckp_wh8n7c7J1dDtkmI-2" target="Gckp_wh8n7c7J1dDtkmI-6">
          <mxGeometry relative="1" as="geometry" />
        </mxCell>
        <mxCell id="Gckp_wh8n7c7J1dDtkmI-1" value="CreateFileSystem" style="text;html=1;align=center;verticalAlign=middle;resizable=0;points=[];labelBackgroundColor=#ffffff;" vertex="1" connectable="0" parent="Gckp_wh8n7c7J1dDtkmI-0">
          <mxGeometry x="-0.1568" relative="1" as="geometry">
            <mxPoint as="offset" />
          </mxGeometry>
        </mxCell>
        <mxCell id="Gckp_wh8n7c7J1dDtkmI-2" value="Client" style="rounded=0;whiteSpace=wrap;html=1;fillColor=#cce5ff;strokeColor=#36393d;" vertex="1" parent="6xjObVUxuo3nGW3AaCvO-1">
          <mxGeometry x="40" y="314" width="120" height="60" as="geometry" />
        </mxCell>
        <mxCell id="Gckp_wh8n7c7J1dDtkmI-3" style="edgeStyle=orthogonalEdgeStyle;rounded=0;orthogonalLoop=1;jettySize=auto;html=1;exitX=0.5;exitY=1;exitDx=0;exitDy=0;entryX=0.5;entryY=0;entryDx=0;entryDy=0;" edge="1" parent="6xjObVUxuo3nGW3AaCvO-1" source="Gckp_wh8n7c7J1dDtkmI-6" target="Gckp_wh8n7c7J1dDtkmI-7">
          <mxGeometry relative="1" as="geometry" />
        </mxCell>
        <mxCell id="Gckp_wh8n7c7J1dDtkmI-4" style="edgeStyle=orthogonalEdgeStyle;rounded=0;orthogonalLoop=1;jettySize=auto;html=1;exitX=0.5;exitY=1;exitDx=0;exitDy=0;entryX=0.5;entryY=0;entryDx=0;entryDy=0;fontColor=#FF0000;" edge="1" parent="6xjObVUxuo3nGW3AaCvO-1" source="Gckp_wh8n7c7J1dDtkmI-6" target="Gckp_wh8n7c7J1dDtkmI-8">
          <mxGeometry relative="1" as="geometry" />
        </mxCell>
        <mxCell id="Gckp_wh8n7c7J1dDtkmI-5" style="edgeStyle=orthogonalEdgeStyle;rounded=0;orthogonalLoop=1;jettySize=auto;html=1;exitX=0.5;exitY=1;exitDx=0;exitDy=0;fontColor=#FF0000;" edge="1" parent="6xjObVUxuo3nGW3AaCvO-1" source="Gckp_wh8n7c7J1dDtkmI-6" target="Gckp_wh8n7c7J1dDtkmI-9">
          <mxGeometry relative="1" as="geometry" />
        </mxCell>
        <mxCell id="Gckp_wh8n7c7J1dDtkmI-6" value="Yaochi" style="rounded=0;whiteSpace=wrap;html=1;fillColor=#ffff88;strokeColor=#36393d;" vertex="1" parent="6xjObVUxuo3nGW3AaCvO-1">
          <mxGeometry x="345" y="314" width="120" height="60" as="geometry" />
        </mxCell>
        <mxCell id="Gckp_wh8n7c7J1dDtkmI-7" value="通用型 Ocm" style="rounded=0;whiteSpace=wrap;html=1;fillColor=#f9f7ed;strokeColor=#36393d;" vertex="1" parent="6xjObVUxuo3nGW3AaCvO-1">
          <mxGeometry x="210" y="454" width="120" height="60" as="geometry" />
        </mxCell>
        <mxCell id="Gckp_wh8n7c7J1dDtkmI-8" value="极速型 Ocm" style="rounded=0;whiteSpace=wrap;html=1;fillColor=#f9f7ed;strokeColor=#36393d;" vertex="1" parent="6xjObVUxuo3nGW3AaCvO-1">
          <mxGeometry x="345" y="454" width="120" height="60" as="geometry" />
        </mxCell>
        <mxCell id="Gckp_wh8n7c7J1dDtkmI-9" value="CPFS Ocm" style="rounded=0;whiteSpace=wrap;html=1;fillColor=#f9f7ed;strokeColor=#36393d;" vertex="1" parent="6xjObVUxuo3nGW3AaCvO-1">
          <mxGeometry x="480" y="454" width="120" height="60" as="geometry" />
        </mxCell>
        <mxCell id="cO15rp50_BLPMURsvgJx-0" style="edgeStyle=orthogonalEdgeStyle;rounded=0;orthogonalLoop=1;jettySize=auto;html=1;exitX=1;exitY=0.25;exitDx=0;exitDy=0;entryX=0;entryY=0.25;entryDx=0;entryDy=0;" edge="1" parent="6xjObVUxuo3nGW3AaCvO-1" source="cO15rp50_BLPMURsvgJx-2" target="cO15rp50_BLPMURsvgJx-6">
          <mxGeometry relative="1" as="geometry" />
        </mxCell>
        <mxCell id="cO15rp50_BLPMURsvgJx-1" value="1. CreateFileSystem" style="text;html=1;align=center;verticalAlign=middle;resizable=0;points=[];labelBackgroundColor=#ffffff;" vertex="1" connectable="0" parent="cO15rp50_BLPMURsvgJx-0">
          <mxGeometry x="-0.1568" relative="1" as="geometry">
            <mxPoint as="offset" />
          </mxGeometry>
        </mxCell>
        <mxCell id="cO15rp50_BLPMURsvgJx-2" value="Client" style="rounded=0;whiteSpace=wrap;html=1;fillColor=#cce5ff;strokeColor=#36393d;" vertex="1" parent="6xjObVUxuo3nGW3AaCvO-1">
          <mxGeometry x="52" y="596" width="120" height="60" as="geometry" />
        </mxCell>
        <mxCell id="cO15rp50_BLPMURsvgJx-3" style="edgeStyle=orthogonalEdgeStyle;rounded=0;orthogonalLoop=1;jettySize=auto;html=1;exitX=0.5;exitY=1;exitDx=0;exitDy=0;entryX=0.5;entryY=0;entryDx=0;entryDy=0;" edge="1" parent="6xjObVUxuo3nGW3AaCvO-1" source="cO15rp50_BLPMURsvgJx-6" target="cO15rp50_BLPMURsvgJx-8">
          <mxGeometry relative="1" as="geometry" />
        </mxCell>
        <mxCell id="cO15rp50_BLPMURsvgJx-4" style="edgeStyle=orthogonalEdgeStyle;rounded=0;orthogonalLoop=1;jettySize=auto;html=1;exitX=0.5;exitY=1;exitDx=0;exitDy=0;entryX=0.5;entryY=0;entryDx=0;entryDy=0;fontColor=#FF0000;" edge="1" parent="6xjObVUxuo3nGW3AaCvO-1" source="cO15rp50_BLPMURsvgJx-6" target="cO15rp50_BLPMURsvgJx-9">
          <mxGeometry relative="1" as="geometry" />
        </mxCell>
        <mxCell id="cO15rp50_BLPMURsvgJx-5" style="edgeStyle=orthogonalEdgeStyle;rounded=0;orthogonalLoop=1;jettySize=auto;html=1;exitX=0.5;exitY=1;exitDx=0;exitDy=0;fontColor=#FF0000;" edge="1" parent="6xjObVUxuo3nGW3AaCvO-1" source="cO15rp50_BLPMURsvgJx-6" target="cO15rp50_BLPMURsvgJx-10">
          <mxGeometry relative="1" as="geometry" />
        </mxCell>
        <mxCell id="cO15rp50_BLPMURsvgJx-20" value="4. 生产" style="text;html=1;align=center;verticalAlign=middle;resizable=0;points=[];labelBackgroundColor=#ffffff;fontColor=#FF0000;" vertex="1" connectable="0" parent="cO15rp50_BLPMURsvgJx-5">
          <mxGeometry x="-0.2" y="-2" relative="1" as="geometry">
            <mxPoint x="14" y="-4" as="offset" />
          </mxGeometry>
        </mxCell>
        <mxCell id="cO15rp50_BLPMURsvgJx-13" style="rounded=0;orthogonalLoop=1;jettySize=auto;html=1;exitX=1;exitY=0.25;exitDx=0;exitDy=0;entryX=0;entryY=0.25;entryDx=0;entryDy=0;fontColor=#FF0000;" edge="1" parent="6xjObVUxuo3nGW3AaCvO-1" source="cO15rp50_BLPMURsvgJx-6" target="cO15rp50_BLPMURsvgJx-7">
          <mxGeometry relative="1" as="geometry" />
        </mxCell>
        <mxCell id="cO15rp50_BLPMURsvgJx-15" value="2. CreateOrder（下单）" style="text;html=1;align=center;verticalAlign=middle;resizable=0;points=[];labelBackgroundColor=#ffffff;fontColor=#FF0000;" vertex="1" connectable="0" parent="cO15rp50_BLPMURsvgJx-13">
          <mxGeometry x="-0.2" y="1" relative="1" as="geometry">
            <mxPoint x="21" y="-4" as="offset" />
          </mxGeometry>
        </mxCell>
        <mxCell id="cO15rp50_BLPMURsvgJx-6" value="Yaochi" style="rounded=0;whiteSpace=wrap;html=1;fillColor=#ffff88;strokeColor=#36393d;" vertex="1" parent="6xjObVUxuo3nGW3AaCvO-1">
          <mxGeometry x="357" y="596" width="120" height="60" as="geometry" />
        </mxCell>
        <mxCell id="cO15rp50_BLPMURsvgJx-14" style="edgeStyle=none;rounded=0;orthogonalLoop=1;jettySize=auto;html=1;exitX=0;exitY=0.75;exitDx=0;exitDy=0;entryX=1;entryY=0.75;entryDx=0;entryDy=0;fontColor=#FF0000;" edge="1" parent="6xjObVUxuo3nGW3AaCvO-1" source="cO15rp50_BLPMURsvgJx-7" target="cO15rp50_BLPMURsvgJx-6">
          <mxGeometry relative="1" as="geometry" />
        </mxCell>
        <mxCell id="cO15rp50_BLPMURsvgJx-16" value="3. PayOrderCallback&lt;br&gt;（生产回调）" style="text;html=1;align=center;verticalAlign=middle;resizable=0;points=[];labelBackgroundColor=#ffffff;fontColor=#FF0000;" vertex="1" connectable="0" parent="cO15rp50_BLPMURsvgJx-14">
          <mxGeometry x="0.1459" relative="1" as="geometry">
            <mxPoint x="8" y="5" as="offset" />
          </mxGeometry>
        </mxCell>
        <mxCell id="cO15rp50_BLPMURsvgJx-7" value="Order Service" style="rounded=0;whiteSpace=wrap;html=1;fillColor=#cdeb8b;strokeColor=#36393d;" vertex="1" parent="6xjObVUxuo3nGW3AaCvO-1">
          <mxGeometry x="662" y="596" width="120" height="60" as="geometry" />
        </mxCell>
        <mxCell id="cO15rp50_BLPMURsvgJx-8" value="通用型 Ocm" style="rounded=0;whiteSpace=wrap;html=1;fillColor=#f9f7ed;strokeColor=#36393d;" vertex="1" parent="6xjObVUxuo3nGW3AaCvO-1">
          <mxGeometry x="222" y="736" width="120" height="60" as="geometry" />
        </mxCell>
        <mxCell id="cO15rp50_BLPMURsvgJx-9" value="极速型 Ocm" style="rounded=0;whiteSpace=wrap;html=1;fillColor=#f9f7ed;strokeColor=#36393d;" vertex="1" parent="6xjObVUxuo3nGW3AaCvO-1">
          <mxGeometry x="357" y="736" width="120" height="60" as="geometry" />
        </mxCell>
        <mxCell id="cO15rp50_BLPMURsvgJx-10" value="CPFS Ocm" style="rounded=0;whiteSpace=wrap;html=1;fillColor=#f9f7ed;strokeColor=#36393d;" vertex="1" parent="6xjObVUxuo3nGW3AaCvO-1">
          <mxGeometry x="492" y="736" width="120" height="60" as="geometry" />
        </mxCell>
        <mxCell id="cO15rp50_BLPMURsvgJx-11" value="" style="endArrow=none;html=1;fontColor=#FF0000;" edge="1" parent="6xjObVUxuo3nGW3AaCvO-1">
          <mxGeometry width="50" height="50" relative="1" as="geometry">
            <mxPoint x="40" y="270" as="sourcePoint" />
            <mxPoint x="700" y="270" as="targetPoint" />
          </mxGeometry>
        </mxCell>
        <mxCell id="cO15rp50_BLPMURsvgJx-12" value="" style="endArrow=none;html=1;fontColor=#FF0000;" edge="1" parent="6xjObVUxuo3nGW3AaCvO-1">
          <mxGeometry width="50" height="50" relative="1" as="geometry">
            <mxPoint x="40" y="550" as="sourcePoint" />
            <mxPoint x="700" y="550" as="targetPoint" />
          </mxGeometry>
        </mxCell>
        <mxCell id="cO15rp50_BLPMURsvgJx-18" value="" style="ellipse;whiteSpace=wrap;html=1;fillColor=#ffcc99;strokeColor=#36393d;" vertex="1" parent="6xjObVUxuo3nGW3AaCvO-1">
          <mxGeometry x="407" y="636" width="20" height="20" as="geometry" />
        </mxCell>
        <mxCell id="cO15rp50_BLPMURsvgJx-26" style="edgeStyle=none;rounded=0;orthogonalLoop=1;jettySize=auto;html=1;exitX=0;exitY=0.75;exitDx=0;exitDy=0;entryX=1;entryY=0.75;entryDx=0;entryDy=0;fontColor=#FF0000;" edge="1" parent="6xjObVUxuo3nGW3AaCvO-1" source="Gckp_wh8n7c7J1dDtkmI-6" target="Gckp_wh8n7c7J1dDtkmI-2">
          <mxGeometry relative="1" as="geometry">
            <mxPoint x="355" y="85" as="sourcePoint" />
            <mxPoint x="170" y="85" as="targetPoint" />
          </mxGeometry>
        </mxCell>
        <mxCell id="cO15rp50_BLPMURsvgJx-27" value="&lt;font color=&quot;#000000&quot;&gt;返回FsId&lt;/font&gt;" style="text;html=1;align=center;verticalAlign=middle;resizable=0;points=[];labelBackgroundColor=#ffffff;fontColor=#FF0000;" vertex="1" connectable="0" parent="cO15rp50_BLPMURsvgJx-26">
          <mxGeometry x="0.2324" y="2" relative="1" as="geometry">
            <mxPoint x="14" y="-2" as="offset" />
          </mxGeometry>
        </mxCell>
        <mxCell id="cO15rp50_BLPMURsvgJx-28" style="edgeStyle=none;rounded=0;orthogonalLoop=1;jettySize=auto;html=1;exitX=0;exitY=0.75;exitDx=0;exitDy=0;entryX=1;entryY=0.75;entryDx=0;entryDy=0;fontColor=#FF0000;" edge="1" parent="6xjObVUxuo3nGW3AaCvO-1" source="cO15rp50_BLPMURsvgJx-6" target="cO15rp50_BLPMURsvgJx-2">
          <mxGeometry relative="1" as="geometry">
            <mxPoint x="357" y="636" as="sourcePoint" />
            <mxPoint x="172" y="636" as="targetPoint" />
          </mxGeometry>
        </mxCell>
        <mxCell id="cO15rp50_BLPMURsvgJx-29" value="&lt;font color=&quot;#000000&quot;&gt;返回FsId&lt;/font&gt;" style="text;html=1;align=center;verticalAlign=middle;resizable=0;points=[];labelBackgroundColor=#ffffff;fontColor=#FF0000;" vertex="1" connectable="0" parent="cO15rp50_BLPMURsvgJx-28">
          <mxGeometry x="0.2324" y="2" relative="1" as="geometry">
            <mxPoint x="14" y="-2" as="offset" />
          </mxGeometry>
        </mxCell>
        <mxCell id="cO15rp50_BLPMURsvgJx-30" value="&lt;h1&gt;业务约束和需求&lt;/h1&gt;&lt;p&gt;1、API最大超时时间为10秒&lt;br&gt;2、API需要保证幂等（避免重复下单）&lt;br&gt;3、API需要返回FsId（用于查询资源）&lt;/p&gt;" style="text;html=1;strokeColor=none;fillColor=none;spacing=5;spacingTop=-20;whiteSpace=wrap;overflow=hidden;rounded=0;fontColor=#FF0000;" vertex="1" parent="6xjObVUxuo3nGW3AaCvO-1">
          <mxGeometry x="16" y="671" width="248" height="120" as="geometry" />
        </mxCell>
      </root>
    </mxGraphModel>
  </diagram>
  <diagram id="RM_Os0tcs5ELDlEQjg5o" name="难点">
    <mxGraphModel dx="878" dy="591" grid="0" gridSize="10" guides="1" tooltips="1" connect="1" arrows="1" fold="1" page="1" pageScale="1" pageWidth="1169" pageHeight="827" math="0" shadow="0">
      <root>
        <mxCell id="7Hu3GWduMPiqPAxFSZPA-0" />
        <mxCell id="7Hu3GWduMPiqPAxFSZPA-1" parent="7Hu3GWduMPiqPAxFSZPA-0" />
        <mxCell id="OM0KM5UeXDJ8VwsQiE9X-0" style="edgeStyle=orthogonalEdgeStyle;rounded=0;orthogonalLoop=1;jettySize=auto;html=1;exitX=1;exitY=0.25;exitDx=0;exitDy=0;entryX=0;entryY=0.25;entryDx=0;entryDy=0;" edge="1" parent="7Hu3GWduMPiqPAxFSZPA-1" source="OM0KM5UeXDJ8VwsQiE9X-2" target="OM0KM5UeXDJ8VwsQiE9X-4">
          <mxGeometry relative="1" as="geometry" />
        </mxCell>
        <mxCell id="OM0KM5UeXDJ8VwsQiE9X-1" value="CreateFileSystem" style="text;html=1;align=center;verticalAlign=middle;resizable=0;points=[];labelBackgroundColor=#ffffff;" vertex="1" connectable="0" parent="OM0KM5UeXDJ8VwsQiE9X-0">
          <mxGeometry x="-0.1568" relative="1" as="geometry">
            <mxPoint x="12" as="offset" />
          </mxGeometry>
        </mxCell>
        <mxCell id="OM0KM5UeXDJ8VwsQiE9X-2" value="Client" style="rounded=0;whiteSpace=wrap;html=1;fillColor=#cce5ff;strokeColor=#36393d;" vertex="1" parent="7Hu3GWduMPiqPAxFSZPA-1">
          <mxGeometry x="90" y="200" width="120" height="120" as="geometry" />
        </mxCell>
        <mxCell id="Vmwg6lkcTUVVBEVXUivY-1" style="edgeStyle=none;rounded=0;orthogonalLoop=1;jettySize=auto;html=1;exitX=1;exitY=0.25;exitDx=0;exitDy=0;entryX=0;entryY=0.25;entryDx=0;entryDy=0;fontColor=#FF0000;" edge="1" parent="7Hu3GWduMPiqPAxFSZPA-1" source="OM0KM5UeXDJ8VwsQiE9X-4" target="OM0KM5UeXDJ8VwsQiE9X-5">
          <mxGeometry relative="1" as="geometry" />
        </mxCell>
        <mxCell id="s6ukx32mmgv2aBPf_lIK-1" value="&lt;font color=&quot;#000000&quot;&gt;CreateOrder（下单）&lt;/font&gt;" style="text;html=1;align=center;verticalAlign=middle;resizable=0;points=[];labelBackgroundColor=#ffffff;fontColor=#FF0000;" vertex="1" connectable="0" parent="Vmwg6lkcTUVVBEVXUivY-1">
          <mxGeometry x="-0.0378" y="2" relative="1" as="geometry">
            <mxPoint x="16" as="offset" />
          </mxGeometry>
        </mxCell>
        <mxCell id="Vmwg6lkcTUVVBEVXUivY-3" style="edgeStyle=none;rounded=0;orthogonalLoop=1;jettySize=auto;html=1;exitX=0;exitY=0.75;exitDx=0;exitDy=0;entryX=1;entryY=0.75;entryDx=0;entryDy=0;fontColor=#FF0000;" edge="1" parent="7Hu3GWduMPiqPAxFSZPA-1" source="OM0KM5UeXDJ8VwsQiE9X-4" target="OM0KM5UeXDJ8VwsQiE9X-2">
          <mxGeometry relative="1" as="geometry" />
        </mxCell>
        <mxCell id="Vmwg6lkcTUVVBEVXUivY-5" value="&lt;font color=&quot;#000000&quot;&gt;返回相同FsId&lt;/font&gt;" style="text;html=1;align=center;verticalAlign=middle;resizable=0;points=[];labelBackgroundColor=#ffffff;fontColor=#FF0000;" vertex="1" connectable="0" parent="Vmwg6lkcTUVVBEVXUivY-3">
          <mxGeometry x="0.0595" relative="1" as="geometry">
            <mxPoint x="3" as="offset" />
          </mxGeometry>
        </mxCell>
        <mxCell id="OM0KM5UeXDJ8VwsQiE9X-4" value="Yaochi" style="rounded=0;whiteSpace=wrap;html=1;fillColor=#ffff88;strokeColor=#36393d;" vertex="1" parent="7Hu3GWduMPiqPAxFSZPA-1">
          <mxGeometry x="395" y="200" width="120" height="120" as="geometry" />
        </mxCell>
        <mxCell id="Vmwg6lkcTUVVBEVXUivY-2" value="&lt;font color=&quot;#000000&quot;&gt;返回OrderId&lt;/font&gt;" style="edgeStyle=none;rounded=0;orthogonalLoop=1;jettySize=auto;html=1;exitX=0;exitY=0.75;exitDx=0;exitDy=0;entryX=1;entryY=0.75;entryDx=0;entryDy=0;fontColor=#FF0000;" edge="1" parent="7Hu3GWduMPiqPAxFSZPA-1" source="OM0KM5UeXDJ8VwsQiE9X-5" target="OM0KM5UeXDJ8VwsQiE9X-4">
          <mxGeometry relative="1" as="geometry" />
        </mxCell>
        <mxCell id="OM0KM5UeXDJ8VwsQiE9X-5" value="Order Service" style="rounded=0;whiteSpace=wrap;html=1;fillColor=#cdeb8b;strokeColor=#36393d;" vertex="1" parent="7Hu3GWduMPiqPAxFSZPA-1">
          <mxGeometry x="700" y="200" width="120" height="120" as="geometry" />
        </mxCell>
        <mxCell id="Vmwg6lkcTUVVBEVXUivY-0" value="ClientToken" style="text;html=1;align=center;verticalAlign=middle;resizable=0;points=[];autosize=1;fontColor=#FF0000;strokeColor=#000000;dashed=1;" vertex="1" parent="7Hu3GWduMPiqPAxFSZPA-1">
          <mxGeometry x="260" y="250" width="80" height="20" as="geometry" />
        </mxCell>
        <mxCell id="BldDIwCbWcGAGHKwSD4v-0" value="" style="shape=image;verticalLabelPosition=bottom;verticalAlign=top;imageAspect=0;aspect=fixed;image=data:image/png,iVBORw0KGgoAAAANSUhEUgAAACUAAAAgCAYAAACVU7GwAAAFL0lEQVRYR82Xa2wUVRTH/2d2KchDxdB2prqzaUTRCkqCQNTuzH7w8QGikCiSSAzGIArBF5+MJig+PhnFBw+RoEYTo1EgxBgfienMFkUCgYAEQ3i4s3X3bktoUWgppfeYmZ0ts9vd7rZU4/20ex/n/ObM/5x7hvA/HHQ5TOnmBr1PkSuIMB+MJhAkGIdBWBexxMcE8EjsjxgqZdYvY9DbAE0o7Zh3o08u0X9uPz5csBFBOYb6JohWe86YGYRN3M/bKKTMYGA5AdNyIHx84tneWdfs6zwzHLBhQyUNdRERfeHz/K1IWhRpzXyXd8pxhB2p7iCied4e8FdRSzz0r0GlZzWM75sgjxGR5kUIFNftjF3sMNl81WSExp8g4GoPjC7Goi0drdWCDStSjlH/Gkh5MRclbI7ameXlHDmmugKg9X5Ej+i2mEFAfzVgVUN5mRbiowSMZaDrSuppnNzS1VXOiRvGlKEeANGt7h6CfDpiZd8bVSjH1LYDWOA7eCJiZT8c0BGgtMXU20Pdym8N+9Ld+XnHVGcDtMePbCdk9/XR1jOdlcCqilQyXttMHE74GbU3Yok5+Rp0Mo5xCmsH3IxjRicpuFdvyewNgG0F6DE/UzfptnjqsqEYCDmGeoiIbnbFTSxnRhLtB/OG2+K1MyWH9w84Yt6p2+KB/P90vGFKn5QniGiSez4MuqXBzhwZCqxipJJG/TNEyrrck8oPdDv7ZNBgMqY2kUKHA3OtupWJBfc4hroSRO/7c4PWiwGHhMrE1NoLhOPuU5YTt/v6Qqz1XNIXfxq1xKNBR8WiB8vFup31al2pMSRU0tQ2E7CslLgLomWoWSKqywmaX4na4uViZ4Wi54yeFo10DL3DgmprrrtNKsp+ELmaLhD3IIeGuhtEc32opVFbfFLKmWOqA6JnyWujCbFmWFCOoe4B0exS4i4Rhc8BWuzPG7qV8TO1cGdQ9Az0jumnGxta005VmkoZdY8whT7LiZsrprFjam8AeMHdrlBv5LqW023l9BIUPTN/HbXFgxWhgvdbNZXbNZhrY5TNAPfrlgiXA/KesajSl7oXBwk9+NQk5bJIIrtlKCfuWtKsu4cQ+gGMo7qd8duW8qeKRD/oXiyA8jtJtwsY44pbt8TsSkDuenu8Vj3PoWMAftItcX81ZxxT/QigpV5mS14VSYh8HUMBVNLUfiTg7mrEHXTsvhIRm2JAylPartPBQlqWr0D0jM5J58435pvBAahUTJ3DCv2ae++DC2A563738D0BN/mJYY1T+ufXtXScrRSxlFm/iqG860ULvCZiibW53/5wDO0lEF71/sr+hXqifUclo+66Y6jrQbSiaO9q3cq8Vek8T8XY1LXqKYAmgvmQbgu/zclDmeoGgLwbfAxxo9Yi/qhk1BO5oX6Tb33z+4nxTsTOPFvNecfQjoJwA8AXI5aocSv1pUgFag3L/uZoon1XdUbVjSAquKQBVBcpQHFMrdttHF0d67ZQCl5fytQWMrDN18UG3RYrq4FK36lF+8L8LRE15TVV08Xz1IPZc5XOOzHtPijwPjoYLKKW0Aqh7sAVskZLDzT7zA9HbfFlJcMjXU/Fa6dKGdrp9WkeFW/VbfF4AZQnWlN7DkBAoLwRkm1iEiN1XnxOKphLhCUATc+vMXN7DWO6lhAdg6By2aRtAcEj/k8Gc0cYZAa70ZL9lBOrWwAKPQ9CQQc5mpDMfJIY2+li9+uRX/46HbQ9ZJP3511TpkkKe+IbvcE9E3ou/D7Up3zFHn30YKq39A/DP10/VUwA4AAAAABJRU5ErkJggg==;dashed=1;strokeColor=#000000;fontColor=#FF0000;flipV=0;flipH=1;" vertex="1" parent="7Hu3GWduMPiqPAxFSZPA-1">
          <mxGeometry x="530" y="215" width="30" height="25.91" as="geometry" />
        </mxCell>
        <mxCell id="BldDIwCbWcGAGHKwSD4v-2" value="&lt;table border=&quot;1&quot; width=&quot;100%&quot; cellpadding=&quot;4&quot; style=&quot;width: 100% ; height: 100% ; border-collapse: collapse&quot;&gt;&lt;tbody&gt;&lt;tr style=&quot;background-color: rgb(167, 201, 66); border: 1px solid rgb(152, 191, 33);&quot;&gt;&lt;th align=&quot;left&quot;&gt;Uid&lt;/th&gt;&lt;th align=&quot;left&quot;&gt;ClientToken&lt;/th&gt;&lt;th align=&quot;left&quot;&gt;FsId&lt;/th&gt;&lt;/tr&gt;&lt;tr style=&quot;border: 1px solid #98bf21&quot;&gt;&lt;td&gt;Value 1&lt;/td&gt;&lt;td&gt;Value 2&lt;/td&gt;&lt;td&gt;Value 3&lt;/td&gt;&lt;/tr&gt;&lt;tr style=&quot;background-color: #eaf2d3 ; border: 1px solid #98bf21&quot;&gt;&lt;td&gt;Value 4&lt;/td&gt;&lt;td&gt;Value 5&lt;/td&gt;&lt;td&gt;Value 6&lt;/td&gt;&lt;/tr&gt;&lt;tr style=&quot;border: 1px solid #98bf21&quot;&gt;&lt;td&gt;Value 7&lt;/td&gt;&lt;td&gt;Value 8&lt;/td&gt;&lt;td&gt;Value 9&lt;/td&gt;&lt;/tr&gt;&lt;tr style=&quot;background-color: #eaf2d3 ; border: 1px solid #98bf21&quot;&gt;&lt;td&gt;Value 10&lt;/td&gt;&lt;td&gt;Value 11&lt;/td&gt;&lt;td&gt;Value 12&lt;/td&gt;&lt;/tr&gt;&lt;/tbody&gt;&lt;/table&gt;" style="text;html=1;strokeColor=#c0c0c0;fillColor=#ffffff;overflow=fill;rounded=0;dashed=1;fontColor=#666666;" vertex="1" parent="7Hu3GWduMPiqPAxFSZPA-1">
          <mxGeometry x="340" y="354" width="230" height="120" as="geometry" />
        </mxCell>
        <mxCell id="6eeVkwYANOs33cuux993-3" value="" style="shape=image;verticalLabelPosition=bottom;verticalAlign=top;imageAspect=0;aspect=fixed;image=data:image/png,iVBORw0KGgoAAAANSUhEUgAAACUAAAAgCAYAAACVU7GwAAAFL0lEQVRYR82Xa2wUVRTH/2d2KchDxdB2prqzaUTRCkqCQNTuzH7w8QGikCiSSAzGIArBF5+MJig+PhnFBw+RoEYTo1EgxBgfienMFkUCgYAEQ3i4s3X3bktoUWgppfeYmZ0ts9vd7rZU4/20ex/n/ObM/5x7hvA/HHQ5TOnmBr1PkSuIMB+MJhAkGIdBWBexxMcE8EjsjxgqZdYvY9DbAE0o7Zh3o08u0X9uPz5csBFBOYb6JohWe86YGYRN3M/bKKTMYGA5AdNyIHx84tneWdfs6zwzHLBhQyUNdRERfeHz/K1IWhRpzXyXd8pxhB2p7iCied4e8FdRSzz0r0GlZzWM75sgjxGR5kUIFNftjF3sMNl81WSExp8g4GoPjC7Goi0drdWCDStSjlH/Gkh5MRclbI7ameXlHDmmugKg9X5Ej+i2mEFAfzVgVUN5mRbiowSMZaDrSuppnNzS1VXOiRvGlKEeANGt7h6CfDpiZd8bVSjH1LYDWOA7eCJiZT8c0BGgtMXU20Pdym8N+9Ld+XnHVGcDtMePbCdk9/XR1jOdlcCqilQyXttMHE74GbU3Yok5+Rp0Mo5xCmsH3IxjRicpuFdvyewNgG0F6DE/UzfptnjqsqEYCDmGeoiIbnbFTSxnRhLtB/OG2+K1MyWH9w84Yt6p2+KB/P90vGFKn5QniGiSez4MuqXBzhwZCqxipJJG/TNEyrrck8oPdDv7ZNBgMqY2kUKHA3OtupWJBfc4hroSRO/7c4PWiwGHhMrE1NoLhOPuU5YTt/v6Qqz1XNIXfxq1xKNBR8WiB8vFup31al2pMSRU0tQ2E7CslLgLomWoWSKqywmaX4na4uViZ4Wi54yeFo10DL3DgmprrrtNKsp+ELmaLhD3IIeGuhtEc32opVFbfFLKmWOqA6JnyWujCbFmWFCOoe4B0exS4i4Rhc8BWuzPG7qV8TO1cGdQ9Az0jumnGxta005VmkoZdY8whT7LiZsrprFjam8AeMHdrlBv5LqW023l9BIUPTN/HbXFgxWhgvdbNZXbNZhrY5TNAPfrlgiXA/KesajSl7oXBwk9+NQk5bJIIrtlKCfuWtKsu4cQ+gGMo7qd8duW8qeKRD/oXiyA8jtJtwsY44pbt8TsSkDuenu8Vj3PoWMAftItcX81ZxxT/QigpV5mS14VSYh8HUMBVNLUfiTg7mrEHXTsvhIRm2JAylPartPBQlqWr0D0jM5J58435pvBAahUTJ3DCv2ae++DC2A563738D0BN/mJYY1T+ufXtXScrRSxlFm/iqG860ULvCZiibW53/5wDO0lEF71/sr+hXqifUclo+66Y6jrQbSiaO9q3cq8Vek8T8XY1LXqKYAmgvmQbgu/zclDmeoGgLwbfAxxo9Yi/qhk1BO5oX6Tb33z+4nxTsTOPFvNecfQjoJwA8AXI5aocSv1pUgFag3L/uZoon1XdUbVjSAquKQBVBcpQHFMrdttHF0d67ZQCl5fytQWMrDN18UG3RYrq4FK36lF+8L8LRE15TVV08Xz1IPZc5XOOzHtPijwPjoYLKKW0Aqh7sAVskZLDzT7zA9HbfFlJcMjXU/Fa6dKGdrp9WkeFW/VbfF4AZQnWlN7DkBAoLwRkm1iEiN1XnxOKphLhCUATc+vMXN7DWO6lhAdg6By2aRtAcEj/k8Gc0cYZAa70ZL9lBOrWwAKPQ9CQQc5mpDMfJIY2+li9+uRX/46HbQ9ZJP3511TpkkKe+IbvcE9E3ou/D7Up3zFHn30YKq39A/DP10/VUwA4AAAAABJRU5ErkJggg==;dashed=1;strokeColor=#000000;fontColor=#FF0000;flipV=0;flipH=1;" vertex="1" parent="7Hu3GWduMPiqPAxFSZPA-1">
          <mxGeometry x="530" y="277" width="30" height="25.95" as="geometry" />
        </mxCell>
        <mxCell id="6eeVkwYANOs33cuux993-4" value="&lt;font style=&quot;font-size: 20px&quot;&gt;&lt;b&gt;?&lt;/b&gt;&lt;/font&gt;" style="text;html=1;align=center;verticalAlign=middle;resizable=0;points=[];autosize=1;fontColor=#FF0000;" vertex="1" parent="7Hu3GWduMPiqPAxFSZPA-1">
          <mxGeometry x="395" y="279.98" width="30" height="20" as="geometry" />
        </mxCell>
        <mxCell id="YZriFn-43V789aSoqUwH-1" value="是否下单成功" style="text;html=1;strokeColor=none;fillColor=none;align=center;verticalAlign=middle;whiteSpace=wrap;rounded=0;dashed=1;fontColor=#FF0000;" vertex="1" parent="7Hu3GWduMPiqPAxFSZPA-1">
          <mxGeometry x="415" y="279.98" width="80" height="20" as="geometry" />
        </mxCell>
        <mxCell id="YZriFn-43V789aSoqUwH-2" value="" style="endArrow=none;dashed=1;html=1;fontColor=#FF0000;exitX=0;exitY=0;exitDx=0;exitDy=0;entryX=0.25;entryY=1;entryDx=0;entryDy=0;" edge="1" parent="7Hu3GWduMPiqPAxFSZPA-1" source="BldDIwCbWcGAGHKwSD4v-2" target="OM0KM5UeXDJ8VwsQiE9X-4">
          <mxGeometry width="50" height="50" relative="1" as="geometry">
            <mxPoint x="349" y="365" as="sourcePoint" />
            <mxPoint x="379" y="312" as="targetPoint" />
          </mxGeometry>
        </mxCell>
        <mxCell id="YZriFn-43V789aSoqUwH-3" value="" style="endArrow=none;dashed=1;html=1;fontColor=#FF0000;exitX=1;exitY=0;exitDx=0;exitDy=0;entryX=0.75;entryY=1;entryDx=0;entryDy=0;" edge="1" parent="7Hu3GWduMPiqPAxFSZPA-1" source="BldDIwCbWcGAGHKwSD4v-2" target="OM0KM5UeXDJ8VwsQiE9X-4">
          <mxGeometry width="50" height="50" relative="1" as="geometry">
            <mxPoint x="483" y="366" as="sourcePoint" />
            <mxPoint x="479" y="328" as="targetPoint" />
          </mxGeometry>
        </mxCell>
        <mxCell id="pH72rK8qCMNuPXiVxP5h-0" value="FSId如何保证全局唯一？" style="text;html=1;strokeColor=none;fillColor=none;align=center;verticalAlign=middle;whiteSpace=wrap;rounded=0;dashed=1;fontColor=#FF0000;" vertex="1" parent="7Hu3GWduMPiqPAxFSZPA-1">
          <mxGeometry x="585" y="390" width="139" height="20" as="geometry" />
        </mxCell>
        <mxCell id="pH72rK8qCMNuPXiVxP5h-2" value="之前的FSID随机生成算法会失效，因为这里会被ClientToken锁定资源，导致冲突概率增大" style="rounded=0;whiteSpace=wrap;html=1;dashed=1;strokeColor=#000000;fontColor=#666666;align=left;" vertex="1" parent="7Hu3GWduMPiqPAxFSZPA-1">
          <mxGeometry x="585" y="414" width="135" height="60" as="geometry" />
        </mxCell>
      </root>
    </mxGraphModel>
  </diagram>
  <diagram id="EgdiulHlqkxJsSuw9MAr" name="幂等性实现方案">
    <mxGraphModel dx="878" dy="591" grid="0" gridSize="10" guides="1" tooltips="1" connect="1" arrows="1" fold="1" page="1" pageScale="1" pageWidth="1169" pageHeight="827" math="0" shadow="0">
      <root>
        <mxCell id="0" />
        <mxCell id="1" parent="0" />
        <mxCell id="9jC-wDIH1ADCH6SCS58d-1" value="" style="rounded=0;whiteSpace=wrap;html=1;" parent="1" vertex="1">
          <mxGeometry x="460" y="150" width="120" height="530" as="geometry" />
        </mxCell>
        <mxCell id="9jC-wDIH1ADCH6SCS58d-2" value="" style="endArrow=classic;html=1;" parent="1" edge="1">
          <mxGeometry width="50" height="50" relative="1" as="geometry">
            <mxPoint x="580.96" y="351" as="sourcePoint" />
            <mxPoint x="746" y="351" as="targetPoint" />
          </mxGeometry>
        </mxCell>
        <mxCell id="9jC-wDIH1ADCH6SCS58d-3" value="CreateOrder" style="text;html=1;align=center;verticalAlign=middle;resizable=0;points=[];labelBackgroundColor=#ffffff;" parent="9jC-wDIH1ADCH6SCS58d-2" vertex="1" connectable="0">
          <mxGeometry x="-0.151" y="1" relative="1" as="geometry">
            <mxPoint x="14.01" as="offset" />
          </mxGeometry>
        </mxCell>
        <mxCell id="9jC-wDIH1ADCH6SCS58d-4" value="" style="endArrow=classic;html=1;entryX=-0.033;entryY=0.048;entryDx=0;entryDy=0;entryPerimeter=0;" parent="1" target="9jC-wDIH1ADCH6SCS58d-1" edge="1">
          <mxGeometry width="50" height="50" relative="1" as="geometry">
            <mxPoint x="296" y="175" as="sourcePoint" />
            <mxPoint x="450" y="179" as="targetPoint" />
          </mxGeometry>
        </mxCell>
        <mxCell id="9jC-wDIH1ADCH6SCS58d-5" value="CreateFileSystem" style="text;html=1;align=center;verticalAlign=middle;resizable=0;points=[];labelBackgroundColor=#ffffff;" parent="9jC-wDIH1ADCH6SCS58d-4" vertex="1" connectable="0">
          <mxGeometry x="-0.2214" y="-1" relative="1" as="geometry">
            <mxPoint x="14.04" y="-1.61" as="offset" />
          </mxGeometry>
        </mxCell>
        <mxCell id="9jC-wDIH1ADCH6SCS58d-6" value="" style="endArrow=classic;html=1;dashed=1;" parent="1" edge="1">
          <mxGeometry width="50" height="50" relative="1" as="geometry">
            <mxPoint x="580.96" y="370" as="sourcePoint" />
            <mxPoint x="746" y="370" as="targetPoint" />
          </mxGeometry>
        </mxCell>
        <mxCell id="9jC-wDIH1ADCH6SCS58d-7" value="重试（3次）" style="text;html=1;align=center;verticalAlign=middle;resizable=0;points=[];labelBackgroundColor=#ffffff;" parent="9jC-wDIH1ADCH6SCS58d-6" vertex="1" connectable="0">
          <mxGeometry x="-0.1063" relative="1" as="geometry">
            <mxPoint x="10" as="offset" />
          </mxGeometry>
        </mxCell>
        <mxCell id="9jC-wDIH1ADCH6SCS58d-8" value="" style="endArrow=classic;html=1;" parent="1" edge="1">
          <mxGeometry width="50" height="50" relative="1" as="geometry">
            <mxPoint x="756" y="440" as="sourcePoint" />
            <mxPoint x="580" y="440" as="targetPoint" />
          </mxGeometry>
        </mxCell>
        <mxCell id="9jC-wDIH1ADCH6SCS58d-9" value="生产回调" style="text;html=1;align=center;verticalAlign=middle;resizable=0;points=[];labelBackgroundColor=#ffffff;" parent="9jC-wDIH1ADCH6SCS58d-8" vertex="1" connectable="0">
          <mxGeometry x="-0.477" y="-2" relative="1" as="geometry">
            <mxPoint x="-52.06" as="offset" />
          </mxGeometry>
        </mxCell>
        <mxCell id="9jC-wDIH1ADCH6SCS58d-10" value="&lt;span style=&quot;text-align: left&quot;&gt;首次请求，DB Create&lt;br&gt;status=pending&lt;br&gt;&lt;/span&gt;" style="rounded=1;whiteSpace=wrap;html=1;fillColor=#d5e8d4;strokeColor=#82b366;" parent="1" vertex="1">
          <mxGeometry x="400" y="290" width="120" height="30" as="geometry" />
        </mxCell>
        <mxCell id="9jC-wDIH1ADCH6SCS58d-11" value="&lt;span style=&quot;text-align: left&quot;&gt;若fsid存在，更新DB status=ordered&lt;/span&gt;" style="rounded=1;whiteSpace=wrap;html=1;fillColor=#d5e8d4;strokeColor=#82b366;" parent="1" vertex="1">
          <mxGeometry x="525" y="470" width="110" height="30" as="geometry" />
        </mxCell>
        <mxCell id="9jC-wDIH1ADCH6SCS58d-12" style="edgeStyle=orthogonalEdgeStyle;rounded=0;orthogonalLoop=1;jettySize=auto;html=1;exitX=1;exitY=0.5;exitDx=0;exitDy=0;" parent="1" source="9jC-wDIH1ADCH6SCS58d-15" target="9jC-wDIH1ADCH6SCS58d-18" edge="1">
          <mxGeometry relative="1" as="geometry">
            <Array as="points">
              <mxPoint x="580" y="205" />
            </Array>
          </mxGeometry>
        </mxCell>
        <mxCell id="9jC-wDIH1ADCH6SCS58d-13" value="存在" style="text;html=1;align=center;verticalAlign=middle;resizable=0;points=[];labelBackgroundColor=#ffffff;" parent="9jC-wDIH1ADCH6SCS58d-12" vertex="1" connectable="0">
          <mxGeometry x="-0.28" y="-2" relative="1" as="geometry">
            <mxPoint x="3" y="-2" as="offset" />
          </mxGeometry>
        </mxCell>
        <mxCell id="9jC-wDIH1ADCH6SCS58d-14" value="不存在" style="edgeStyle=orthogonalEdgeStyle;rounded=0;orthogonalLoop=1;jettySize=auto;html=1;exitX=0.5;exitY=1;exitDx=0;exitDy=0;entryX=0.5;entryY=0;entryDx=0;entryDy=0;" parent="1" source="9jC-wDIH1ADCH6SCS58d-15" target="9jC-wDIH1ADCH6SCS58d-10" edge="1">
          <mxGeometry relative="1" as="geometry" />
        </mxCell>
        <mxCell id="9jC-wDIH1ADCH6SCS58d-15" value="&lt;span style=&quot;text-align: left ; white-space: normal&quot;&gt;加载ClientToken&lt;/span&gt;" style="rhombus;whiteSpace=wrap;html=1;fillColor=#ffe6cc;strokeColor=#d79b00;" parent="1" vertex="1">
          <mxGeometry x="400" y="190" width="120" height="30" as="geometry" />
        </mxCell>
        <mxCell id="9jC-wDIH1ADCH6SCS58d-16" style="edgeStyle=orthogonalEdgeStyle;rounded=0;orthogonalLoop=1;jettySize=auto;html=1;exitX=0.5;exitY=1;exitDx=0;exitDy=0;entryX=0.5;entryY=0;entryDx=0;entryDy=0;" parent="1" source="9jC-wDIH1ADCH6SCS58d-18" target="9jC-wDIH1ADCH6SCS58d-28" edge="1">
          <mxGeometry relative="1" as="geometry" />
        </mxCell>
        <mxCell id="9jC-wDIH1ADCH6SCS58d-17" value="是" style="text;html=1;align=center;verticalAlign=middle;resizable=0;points=[];labelBackgroundColor=#ffffff;" parent="9jC-wDIH1ADCH6SCS58d-16" vertex="1" connectable="0">
          <mxGeometry x="-0.1" relative="1" as="geometry">
            <mxPoint as="offset" />
          </mxGeometry>
        </mxCell>
        <mxCell id="9jC-wDIH1ADCH6SCS58d-18" value="&lt;span style=&quot;text-align: left ; white-space: normal&quot;&gt;status==pending&lt;/span&gt;" style="rhombus;whiteSpace=wrap;html=1;fillColor=#ffe6cc;strokeColor=#d79b00;" parent="1" vertex="1">
          <mxGeometry x="520" y="220" width="120" height="30" as="geometry" />
        </mxCell>
        <mxCell id="9jC-wDIH1ADCH6SCS58d-19" value="" style="endArrow=classic;html=1;exitX=0;exitY=0.5;exitDx=0;exitDy=0;" parent="1" source="9jC-wDIH1ADCH6SCS58d-18" edge="1">
          <mxGeometry width="50" height="50" relative="1" as="geometry">
            <mxPoint x="450" y="234.5" as="sourcePoint" />
            <mxPoint x="296" y="234.5" as="targetPoint" />
          </mxGeometry>
        </mxCell>
        <mxCell id="9jC-wDIH1ADCH6SCS58d-20" value="返回FsId" style="text;html=1;align=center;verticalAlign=middle;resizable=0;points=[];labelBackgroundColor=#ffffff;" parent="9jC-wDIH1ADCH6SCS58d-19" vertex="1" connectable="0">
          <mxGeometry x="-0.2214" y="-1" relative="1" as="geometry">
            <mxPoint x="-69" y="-0.7999999999999998" as="offset" />
          </mxGeometry>
        </mxCell>
        <mxCell id="9jC-wDIH1ADCH6SCS58d-21" value="否" style="text;html=1;align=center;verticalAlign=middle;resizable=0;points=[];labelBackgroundColor=#ffffff;" parent="9jC-wDIH1ADCH6SCS58d-19" vertex="1" connectable="0">
          <mxGeometry x="-0.6727" y="-2" relative="1" as="geometry">
            <mxPoint x="16" as="offset" />
          </mxGeometry>
        </mxCell>
        <mxCell id="9jC-wDIH1ADCH6SCS58d-22" value="以30天为周期进行自动回收" style="ellipse;whiteSpace=wrap;html=1;aspect=fixed;fillColor=#d5e8d4;strokeColor=#82b366;" parent="1" vertex="1">
          <mxGeometry x="480" y="600" width="80" height="80" as="geometry" />
        </mxCell>
        <mxCell id="9jC-wDIH1ADCH6SCS58d-23" style="edgeStyle=orthogonalEdgeStyle;rounded=0;orthogonalLoop=1;jettySize=auto;html=1;exitX=0.5;exitY=1;exitDx=0;exitDy=0;" parent="1" source="9jC-wDIH1ADCH6SCS58d-25" edge="1">
          <mxGeometry relative="1" as="geometry">
            <mxPoint x="296" y="460" as="targetPoint" />
            <Array as="points">
              <mxPoint x="520" y="460" />
              <mxPoint x="300" y="460" />
            </Array>
          </mxGeometry>
        </mxCell>
        <mxCell id="9jC-wDIH1ADCH6SCS58d-24" value="异常返回，并告知用户重试" style="text;html=1;align=center;verticalAlign=middle;resizable=0;points=[];labelBackgroundColor=#ffffff;" parent="9jC-wDIH1ADCH6SCS58d-23" vertex="1" connectable="0">
          <mxGeometry x="0.5917" y="-2" relative="1" as="geometry">
            <mxPoint x="51" as="offset" />
          </mxGeometry>
        </mxCell>
        <mxCell id="9jC-wDIH1ADCH6SCS58d-25" value="&lt;span style=&quot;text-align: left ; white-space: normal&quot;&gt;下单是否成功&lt;/span&gt;" style="rhombus;whiteSpace=wrap;html=1;fillColor=#ffe6cc;strokeColor=#d79b00;" parent="1" vertex="1">
          <mxGeometry x="460" y="398" width="120" height="30" as="geometry" />
        </mxCell>
        <mxCell id="9jC-wDIH1ADCH6SCS58d-26" value="" style="endArrow=classic;html=1;exitX=0;exitY=0.5;exitDx=0;exitDy=0;" parent="1" source="9jC-wDIH1ADCH6SCS58d-25" edge="1">
          <mxGeometry width="50" height="50" relative="1" as="geometry">
            <mxPoint x="40" y="418" as="sourcePoint" />
            <mxPoint x="296" y="413" as="targetPoint" />
          </mxGeometry>
        </mxCell>
        <mxCell id="9jC-wDIH1ADCH6SCS58d-27" value="返回FsId" style="text;html=1;align=center;verticalAlign=middle;resizable=0;points=[];labelBackgroundColor=#ffffff;" parent="9jC-wDIH1ADCH6SCS58d-26" vertex="1" connectable="0">
          <mxGeometry x="0.4091" y="-1" relative="1" as="geometry">
            <mxPoint x="20" y="-1" as="offset" />
          </mxGeometry>
        </mxCell>
        <mxCell id="9jC-wDIH1ADCH6SCS58d-28" value="&lt;span style=&quot;text-align: left&quot;&gt;校验请求幂等性&lt;br&gt;&lt;/span&gt;" style="rounded=1;whiteSpace=wrap;html=1;" parent="1" vertex="1">
          <mxGeometry x="530" y="290" width="100" height="30" as="geometry" />
        </mxCell>
        <mxCell id="9jC-wDIH1ADCH6SCS58d-29" style="edgeStyle=orthogonalEdgeStyle;rounded=0;orthogonalLoop=1;jettySize=auto;html=1;exitX=0.5;exitY=1;exitDx=0;exitDy=0;" parent="1" source="9jC-wDIH1ADCH6SCS58d-30" target="9jC-wDIH1ADCH6SCS58d-25" edge="1">
          <mxGeometry relative="1" as="geometry" />
        </mxCell>
        <mxCell id="9jC-wDIH1ADCH6SCS58d-30" value="&lt;span style=&quot;text-align: left&quot;&gt;下单&lt;br&gt;&lt;/span&gt;" style="rounded=1;whiteSpace=wrap;html=1;" parent="1" vertex="1">
          <mxGeometry x="450" y="348" width="140" height="30" as="geometry" />
        </mxCell>
        <mxCell id="9jC-wDIH1ADCH6SCS58d-31" value="&lt;span style=&quot;text-align: left ; white-space: nowrap&quot;&gt;Yaochi&lt;/span&gt;" style="rounded=0;whiteSpace=wrap;html=1;fillColor=#ffff88;strokeColor=#36393d;" parent="1" vertex="1">
          <mxGeometry x="460" y="120" width="120" height="30" as="geometry" />
        </mxCell>
        <mxCell id="9jC-wDIH1ADCH6SCS58d-32" value="" style="group" parent="1" vertex="1" connectable="0">
          <mxGeometry x="750" y="120" width="120" height="560" as="geometry" />
        </mxCell>
        <mxCell id="9jC-wDIH1ADCH6SCS58d-33" value="" style="rounded=0;whiteSpace=wrap;html=1;" parent="9jC-wDIH1ADCH6SCS58d-32" vertex="1">
          <mxGeometry y="32.30769230769231" width="120" height="527.6923076923076" as="geometry" />
        </mxCell>
        <mxCell id="9jC-wDIH1ADCH6SCS58d-34" value="&lt;span style=&quot;text-align: left ; white-space: nowrap&quot;&gt;Order Service&lt;/span&gt;" style="rounded=0;whiteSpace=wrap;html=1;fillColor=#cdeb8b;strokeColor=#36393d;" parent="9jC-wDIH1ADCH6SCS58d-32" vertex="1">
          <mxGeometry width="120" height="32.30769230769231" as="geometry" />
        </mxCell>
        <mxCell id="9jC-wDIH1ADCH6SCS58d-35" value="" style="group" parent="1" vertex="1" connectable="0">
          <mxGeometry x="170" y="120" width="120" height="560" as="geometry" />
        </mxCell>
        <mxCell id="9jC-wDIH1ADCH6SCS58d-36" value="" style="rounded=0;whiteSpace=wrap;html=1;" parent="9jC-wDIH1ADCH6SCS58d-35" vertex="1">
          <mxGeometry y="32.30769230769231" width="120" height="527.6923076923076" as="geometry" />
        </mxCell>
        <mxCell id="9jC-wDIH1ADCH6SCS58d-37" value="&lt;span style=&quot;white-space: normal&quot;&gt;Client&lt;/span&gt;" style="rounded=0;whiteSpace=wrap;html=1;fillColor=#cce5ff;strokeColor=#36393d;" parent="9jC-wDIH1ADCH6SCS58d-35" vertex="1">
          <mxGeometry width="120" height="32.30769230769231" as="geometry" />
        </mxCell>
        <mxCell id="9jC-wDIH1ADCH6SCS58d-38" value="监控报警" style="shape=hexagon;perimeter=hexagonPerimeter2;whiteSpace=wrap;html=1;fillColor=#f8cecc;strokeColor=#b85450;" parent="1" vertex="1">
          <mxGeometry x="475" y="433" width="90" height="20" as="geometry" />
        </mxCell>
        <mxCell id="9jC-wDIH1ADCH6SCS58d-39" value="&lt;span style=&quot;text-align: left&quot;&gt;若fsid存在，更新DB status=finished&lt;/span&gt;" style="rounded=1;whiteSpace=wrap;html=1;fillColor=#d5e8d4;strokeColor=#82b366;" parent="1" vertex="1">
          <mxGeometry x="525" y="550" width="110" height="30" as="geometry" />
        </mxCell>
        <mxCell id="9jC-wDIH1ADCH6SCS58d-40" value="&lt;span style=&quot;text-align: left&quot;&gt;ocm成功返回&lt;br&gt;&lt;/span&gt;" style="rounded=1;whiteSpace=wrap;html=1;" parent="1" vertex="1">
          <mxGeometry x="530" y="515" width="100" height="20" as="geometry" />
        </mxCell>
        <mxCell id="9jC-wDIH1ADCH6SCS58d-41" value="" style="endArrow=classic;html=1;exitX=1.025;exitY=0.05;exitDx=0;exitDy=0;exitPerimeter=0;entryX=-0.033;entryY=0.048;entryDx=0;entryDy=0;entryPerimeter=0;" parent="1" edge="1">
          <mxGeometry width="50" height="50" relative="1" as="geometry">
            <mxPoint x="296" y="514" as="sourcePoint" />
            <mxPoint x="456.03999999999996" y="514" as="targetPoint" />
          </mxGeometry>
        </mxCell>
        <mxCell id="9jC-wDIH1ADCH6SCS58d-42" value="DescribeFileSystems" style="text;html=1;align=center;verticalAlign=middle;resizable=0;points=[];labelBackgroundColor=#ffffff;" parent="9jC-wDIH1ADCH6SCS58d-41" vertex="1" connectable="0">
          <mxGeometry x="-0.2214" y="-1" relative="1" as="geometry">
            <mxPoint x="14.04" y="-1.61" as="offset" />
          </mxGeometry>
        </mxCell>
        <mxCell id="9jC-wDIH1ADCH6SCS58d-43" value="&lt;span style=&quot;text-align: left ; white-space: normal&quot;&gt;status==finished&lt;/span&gt;" style="rhombus;whiteSpace=wrap;html=1;fillColor=#ffe6cc;strokeColor=#d79b00;" parent="1" vertex="1">
          <mxGeometry x="400" y="530" width="120" height="30" as="geometry" />
        </mxCell>
        <mxCell id="9jC-wDIH1ADCH6SCS58d-44" value="" style="endArrow=classic;html=1;exitX=0;exitY=0.5;exitDx=0;exitDy=0;" parent="1" source="9jC-wDIH1ADCH6SCS58d-43" edge="1">
          <mxGeometry width="50" height="50" relative="1" as="geometry">
            <mxPoint x="320" y="650" as="sourcePoint" />
            <mxPoint x="296" y="545" as="targetPoint" />
          </mxGeometry>
        </mxCell>
        <mxCell id="9jC-wDIH1ADCH6SCS58d-45" value="返回错误码" style="text;html=1;align=center;verticalAlign=middle;resizable=0;points=[];labelBackgroundColor=#ffffff;" parent="9jC-wDIH1ADCH6SCS58d-44" vertex="1" connectable="0">
          <mxGeometry x="0.28" y="-1" relative="1" as="geometry">
            <mxPoint x="18" y="-1" as="offset" />
          </mxGeometry>
        </mxCell>
        <mxCell id="RwmySt2MTuMymDQWCWg4-2" value="否" style="text;html=1;align=center;verticalAlign=middle;resizable=0;points=[];labelBackgroundColor=#ffffff;" parent="9jC-wDIH1ADCH6SCS58d-44" vertex="1" connectable="0">
          <mxGeometry x="-0.7885" y="-1" relative="1" as="geometry">
            <mxPoint as="offset" />
          </mxGeometry>
        </mxCell>
        <mxCell id="9jC-wDIH1ADCH6SCS58d-46" value="&lt;span style=&quot;text-align: left&quot;&gt;正常查询&lt;br&gt;&lt;/span&gt;" style="rounded=1;whiteSpace=wrap;html=1;" parent="1" vertex="1">
          <mxGeometry x="430" y="570" width="60" height="20" as="geometry" />
        </mxCell>
        <mxCell id="9jC-wDIH1ADCH6SCS58d-47" value="" style="endArrow=classic;html=1;exitX=0;exitY=0.5;exitDx=0;exitDy=0;" parent="1" edge="1">
          <mxGeometry width="50" height="50" relative="1" as="geometry">
            <mxPoint x="460" y="599" as="sourcePoint" />
            <mxPoint x="296" y="599" as="targetPoint" />
          </mxGeometry>
        </mxCell>
        <mxCell id="9jC-wDIH1ADCH6SCS58d-48" value="返回FsId" style="text;html=1;align=center;verticalAlign=middle;resizable=0;points=[];labelBackgroundColor=#ffffff;" parent="9jC-wDIH1ADCH6SCS58d-47" vertex="1" connectable="0">
          <mxGeometry x="0.4091" y="-1" relative="1" as="geometry">
            <mxPoint x="20" y="-1" as="offset" />
          </mxGeometry>
        </mxCell>
      </root>
    </mxGraphModel>
  </diagram>
  <diagram id="OTob2JzuTUL6UHRERWj8" name="分布式全局唯一ID生成算法">
    <mxGraphModel dx="878" dy="591" grid="0" gridSize="10" guides="1" tooltips="1" connect="1" arrows="1" fold="1" page="1" pageScale="1" pageWidth="1169" pageHeight="827" math="0" shadow="0">
      <root>
        <mxCell id="ccpTuWVFVPcEuNLTps7D-0" />
        <mxCell id="ccpTuWVFVPcEuNLTps7D-1" parent="ccpTuWVFVPcEuNLTps7D-0" />
        <mxCell id="ccpTuWVFVPcEuNLTps7D-31" value="" style="edgeStyle=elbowEdgeStyle;elbow=vertical;endArrow=classic;html=1;strokeColor=#666666;fontColor=#000000;strokeWidth=2;exitX=0.5;exitY=1;exitDx=0;exitDy=0;" edge="1" parent="ccpTuWVFVPcEuNLTps7D-1" source="ccpTuWVFVPcEuNLTps7D-46">
          <mxGeometry width="50" height="50" relative="1" as="geometry">
            <mxPoint x="240" y="480" as="sourcePoint" />
            <mxPoint x="290" y="430" as="targetPoint" />
          </mxGeometry>
        </mxCell>
        <mxCell id="ccpTuWVFVPcEuNLTps7D-33" value="时间戳（以秒为单位），可以支撑136年，从2020-01-01Z起算&lt;br&gt;始终保持时间戳单调递增，可以解决时钟向前向后回拨的问题" style="rounded=0;whiteSpace=wrap;html=1;strokeColor=#666666;align=left;fillColor=#f9f7ed;verticalAlign=middle;" vertex="1" parent="ccpTuWVFVPcEuNLTps7D-1">
          <mxGeometry x="100" y="430" width="380" height="60" as="geometry" />
        </mxCell>
        <mxCell id="ccpTuWVFVPcEuNLTps7D-34" value="" style="elbow=vertical;endArrow=classic;html=1;strokeColor=#666666;fontColor=#000000;strokeWidth=2;entryX=0.5;entryY=0;entryDx=0;entryDy=0;exitX=0.5;exitY=1;exitDx=0;exitDy=0;" edge="1" parent="ccpTuWVFVPcEuNLTps7D-1" source="ccpTuWVFVPcEuNLTps7D-47" target="ccpTuWVFVPcEuNLTps7D-35">
          <mxGeometry width="50" height="50" relative="1" as="geometry">
            <mxPoint x="574.5" y="346.71428571428567" as="sourcePoint" />
            <mxPoint x="574.5" y="490" as="targetPoint" />
          </mxGeometry>
        </mxCell>
        <mxCell id="ccpTuWVFVPcEuNLTps7D-35" value="同一秒内sequence递增，可支撑64K TPS能力，同时利用向后“借一秒”的方式支持burst提升" style="rounded=0;whiteSpace=wrap;html=1;strokeColor=#666666;align=left;fillColor=#f9f7ed;verticalAlign=middle;" vertex="1" parent="ccpTuWVFVPcEuNLTps7D-1">
          <mxGeometry x="480" y="430" width="190" height="60" as="geometry" />
        </mxCell>
        <mxCell id="ccpTuWVFVPcEuNLTps7D-36" value="" style="elbow=vertical;endArrow=classic;html=1;strokeColor=#666666;fontColor=#000000;strokeWidth=2;exitX=0.5;exitY=1;exitDx=0;exitDy=0;entryX=0.5;entryY=0;entryDx=0;entryDy=0;" edge="1" parent="ccpTuWVFVPcEuNLTps7D-1" source="ccpTuWVFVPcEuNLTps7D-49" target="ccpTuWVFVPcEuNLTps7D-42">
          <mxGeometry width="50" height="50" relative="1" as="geometry">
            <mxPoint x="720" y="346.71428571428567" as="sourcePoint" />
            <mxPoint x="710" y="430" as="targetPoint" />
          </mxGeometry>
        </mxCell>
        <mxCell id="ccpTuWVFVPcEuNLTps7D-28" value="64 bit" style="text;html=1;align=center;verticalAlign=middle;resizable=0;points=[];autosize=1;fontColor=#000000;" vertex="1" parent="ccpTuWVFVPcEuNLTps7D-1">
          <mxGeometry x="460" y="270" width="40" height="20" as="geometry" />
        </mxCell>
        <mxCell id="ccpTuWVFVPcEuNLTps7D-16" value="" style="line;strokeWidth=4;html=1;perimeter=backbonePerimeter;points=[];outlineConnect=0;fontColor=#000000;align=left;strokeColor=#FF0000;" vertex="1" parent="ccpTuWVFVPcEuNLTps7D-1">
          <mxGeometry x="100" y="338.57142857142856" width="380" height="14.285714285714286" as="geometry" />
        </mxCell>
        <mxCell id="ccpTuWVFVPcEuNLTps7D-17" value="" style="line;strokeWidth=4;html=1;perimeter=backbonePerimeter;points=[];outlineConnect=0;fontColor=#000000;align=left;strokeColor=#FF0000;" vertex="1" parent="ccpTuWVFVPcEuNLTps7D-1">
          <mxGeometry x="480" y="338.57142857142856" width="190" height="14.285714285714286" as="geometry" />
        </mxCell>
        <mxCell id="ccpTuWVFVPcEuNLTps7D-18" value="" style="line;strokeWidth=4;html=1;perimeter=backbonePerimeter;points=[];outlineConnect=0;fontColor=#000000;align=left;strokeColor=#FF0000;" vertex="1" parent="ccpTuWVFVPcEuNLTps7D-1">
          <mxGeometry x="670" y="338.57142857142856" width="190" height="14.285714285714286" as="geometry" />
        </mxCell>
        <mxCell id="ccpTuWVFVPcEuNLTps7D-19" value="32 bit" style="text;html=1;align=center;verticalAlign=middle;resizable=0;points=[];autosize=1;fontColor=#000000;" vertex="1" parent="ccpTuWVFVPcEuNLTps7D-1">
          <mxGeometry x="270" y="310" width="40" height="20" as="geometry" />
        </mxCell>
        <mxCell id="ccpTuWVFVPcEuNLTps7D-20" value="16 bit" style="text;html=1;align=center;verticalAlign=middle;resizable=0;points=[];autosize=1;fontColor=#000000;" vertex="1" parent="ccpTuWVFVPcEuNLTps7D-1">
          <mxGeometry x="551.25" y="310" width="40" height="20" as="geometry" />
        </mxCell>
        <mxCell id="ccpTuWVFVPcEuNLTps7D-21" value="8 bit" style="text;html=1;align=center;verticalAlign=middle;resizable=0;points=[];autosize=1;fontColor=#000000;" vertex="1" parent="ccpTuWVFVPcEuNLTps7D-1">
          <mxGeometry x="698" y="310" width="40" height="20" as="geometry" />
        </mxCell>
        <mxCell id="ccpTuWVFVPcEuNLTps7D-22" value="" style="endArrow=none;html=1;strokeColor=#FF0000;fontColor=#000000;" edge="1" parent="ccpTuWVFVPcEuNLTps7D-1">
          <mxGeometry width="50" height="50" relative="1" as="geometry">
            <mxPoint x="480" y="331.42857142857144" as="sourcePoint" />
            <mxPoint x="480" y="360" as="targetPoint" />
          </mxGeometry>
        </mxCell>
        <mxCell id="ccpTuWVFVPcEuNLTps7D-23" value="" style="endArrow=none;html=1;strokeColor=#FF0000;fontColor=#000000;" edge="1" parent="ccpTuWVFVPcEuNLTps7D-1">
          <mxGeometry width="50" height="50" relative="1" as="geometry">
            <mxPoint x="670" y="331.42857142857144" as="sourcePoint" />
            <mxPoint x="670" y="360" as="targetPoint" />
          </mxGeometry>
        </mxCell>
        <mxCell id="ccpTuWVFVPcEuNLTps7D-24" value="" style="endArrow=none;html=1;strokeColor=#FF0000;fontColor=#000000;" edge="1" parent="ccpTuWVFVPcEuNLTps7D-1">
          <mxGeometry width="50" height="50" relative="1" as="geometry">
            <mxPoint x="860" y="331.42857142857144" as="sourcePoint" />
            <mxPoint x="860" y="360" as="targetPoint" />
          </mxGeometry>
        </mxCell>
        <mxCell id="ccpTuWVFVPcEuNLTps7D-25" value="" style="endArrow=none;html=1;strokeColor=#FF0000;fontColor=#000000;" edge="1" parent="ccpTuWVFVPcEuNLTps7D-1">
          <mxGeometry width="50" height="50" relative="1" as="geometry">
            <mxPoint x="100" y="331.42857142857144" as="sourcePoint" />
            <mxPoint x="100" y="360" as="targetPoint" />
          </mxGeometry>
        </mxCell>
        <mxCell id="ccpTuWVFVPcEuNLTps7D-26" value="" style="shape=curlyBracket;whiteSpace=wrap;html=1;rounded=1;strokeColor=#000000;fontColor=#000000;align=left;rotation=90;size=0.7;" vertex="1" parent="ccpTuWVFVPcEuNLTps7D-1">
          <mxGeometry x="470" y="-80" width="20" height="756" as="geometry" />
        </mxCell>
        <mxCell id="ccpTuWVFVPcEuNLTps7D-38" value="" style="endArrow=none;html=1;strokeColor=#FF0000;fontColor=#000000;" edge="1" parent="ccpTuWVFVPcEuNLTps7D-1">
          <mxGeometry width="50" height="50" relative="1" as="geometry">
            <mxPoint x="765" y="329.99857142857144" as="sourcePoint" />
            <mxPoint x="765" y="358.57" as="targetPoint" />
          </mxGeometry>
        </mxCell>
        <mxCell id="ccpTuWVFVPcEuNLTps7D-42" value="最多可支持全球256个地域" style="rounded=0;whiteSpace=wrap;html=1;strokeColor=#666666;align=left;fillColor=#f9f7ed;verticalAlign=middle;" vertex="1" parent="ccpTuWVFVPcEuNLTps7D-1">
          <mxGeometry x="670" y="430" width="96" height="60" as="geometry" />
        </mxCell>
        <mxCell id="ccpTuWVFVPcEuNLTps7D-44" value="8 bit" style="text;html=1;align=center;verticalAlign=middle;resizable=0;points=[];autosize=1;fontColor=#000000;" vertex="1" parent="ccpTuWVFVPcEuNLTps7D-1">
          <mxGeometry x="794" y="310" width="40" height="20" as="geometry" />
        </mxCell>
        <mxCell id="ccpTuWVFVPcEuNLTps7D-46" value="time stamp(seconds from epoch 2020, can till 2156)" style="text;html=1;fontColor=#000000;" vertex="1" parent="ccpTuWVFVPcEuNLTps7D-1">
          <mxGeometry x="140" y="350" width="300" height="30" as="geometry" />
        </mxCell>
        <mxCell id="ccpTuWVFVPcEuNLTps7D-47" value="sequence(limit 64K TPS)" style="text;html=1;fontColor=#000000;" vertex="1" parent="ccpTuWVFVPcEuNLTps7D-1">
          <mxGeometry x="507.5" y="350" width="135" height="30" as="geometry" />
        </mxCell>
        <mxCell id="ccpTuWVFVPcEuNLTps7D-49" value="region(max 256)" style="text;html=1;fontColor=#000000;" vertex="1" parent="ccpTuWVFVPcEuNLTps7D-1">
          <mxGeometry x="673" y="350" width="90" height="20" as="geometry" />
        </mxCell>
        <mxCell id="ccpTuWVFVPcEuNLTps7D-50" value="node(max 256)" style="text;html=1;fontColor=#000000;" vertex="1" parent="ccpTuWVFVPcEuNLTps7D-1">
          <mxGeometry x="769" y="350" width="90" height="20" as="geometry" />
        </mxCell>
        <mxCell id="ccpTuWVFVPcEuNLTps7D-52" value="同一个地域最多可支持256个节点" style="rounded=0;whiteSpace=wrap;html=1;strokeColor=#666666;align=left;fillColor=#f9f7ed;" vertex="1" parent="ccpTuWVFVPcEuNLTps7D-1">
          <mxGeometry x="764" y="430" width="96" height="60" as="geometry" />
        </mxCell>
        <mxCell id="ccpTuWVFVPcEuNLTps7D-53" value="" style="elbow=vertical;endArrow=classic;html=1;strokeColor=#666666;fontColor=#000000;strokeWidth=2;entryX=0.5;entryY=0;entryDx=0;entryDy=0;" edge="1" parent="ccpTuWVFVPcEuNLTps7D-1" target="ccpTuWVFVPcEuNLTps7D-52">
          <mxGeometry width="50" height="50" relative="1" as="geometry">
            <mxPoint x="812" y="370" as="sourcePoint" />
            <mxPoint x="813.6399999999999" y="577.99" as="targetPoint" />
          </mxGeometry>
        </mxCell>
      </root>
    </mxGraphModel>
  </diagram>
</mxfile>
